<mxfile host="www.draw.io" modified="2019-12-03T03:54:33.902Z" agent="Mozilla/5.0 (Windows NT 10.0; Win64; x64) AppleWebKit/537.36 (KHTML, like Gecko) Chrome/78.0.3904.108 Safari/537.36" etag="k-krCPrlMc4iDX0AMjNG" version="12.3.5" type="github" pages="1">
  <diagram id="pbaBNXXkWxKQwc2PyJeo" name="Page-1">
    <mxGraphModel dx="1648" dy="748" grid="1" gridSize="10" guides="1" tooltips="1" connect="1" arrows="1" fold="1" page="1" pageScale="1" pageWidth="1600" pageHeight="1200" math="0" shadow="0">
      <root>
        <mxCell id="0"/>
        <mxCell id="1" parent="0"/>
        <mxCell id="WNSE2Z_fz6bNWz0VK5kc-1" value="Master Control" style="rounded=0;whiteSpace=wrap;html=1;" vertex="1" parent="1">
          <mxGeometry x="475" y="110" width="120" height="60" as="geometry"/>
        </mxCell>
        <mxCell id="WNSE2Z_fz6bNWz0VK5kc-2" value="Input" style="rounded=0;whiteSpace=wrap;html=1;" vertex="1" parent="1">
          <mxGeometry x="185" y="180" width="80" height="115" as="geometry"/>
        </mxCell>
        <mxCell id="WNSE2Z_fz6bNWz0VK5kc-3" value="Output" style="rounded=0;whiteSpace=wrap;html=1;" vertex="1" parent="1">
          <mxGeometry x="840" y="100" width="80" height="97" as="geometry"/>
        </mxCell>
        <mxCell id="WNSE2Z_fz6bNWz0VK5kc-4" value="Subprogram Call&lt;br&gt;&lt;br&gt;&lt;br&gt;System I/O" style="rounded=1;whiteSpace=wrap;html=1;" vertex="1" parent="1">
          <mxGeometry x="170" y="70" width="170" height="100" as="geometry"/>
        </mxCell>
        <mxCell id="WNSE2Z_fz6bNWz0VK5kc-5" value="" style="endArrow=classic;html=1;" edge="1" parent="1">
          <mxGeometry width="50" height="50" relative="1" as="geometry">
            <mxPoint x="185" y="110" as="sourcePoint"/>
            <mxPoint x="205" y="85" as="targetPoint"/>
          </mxGeometry>
        </mxCell>
        <mxCell id="WNSE2Z_fz6bNWz0VK5kc-6" value="" style="endArrow=none;html=1;fillColor=#f8cecc;strokeColor=#b85450;endSize=9;startSize=9;" edge="1" parent="1">
          <mxGeometry width="50" height="50" relative="1" as="geometry">
            <mxPoint x="175" y="155" as="sourcePoint"/>
            <mxPoint x="205" y="125" as="targetPoint"/>
          </mxGeometry>
        </mxCell>
        <mxCell id="WNSE2Z_fz6bNWz0VK5kc-7" value="Web UI Page" style="rounded=0;whiteSpace=wrap;html=1;" vertex="1" parent="1">
          <mxGeometry x="195" y="550" width="120" height="60" as="geometry"/>
        </mxCell>
        <mxCell id="WNSE2Z_fz6bNWz0VK5kc-8" value="Output Medium" style="rounded=0;whiteSpace=wrap;html=1;" vertex="1" parent="1">
          <mxGeometry x="865" y="530" width="120" height="60" as="geometry"/>
        </mxCell>
        <mxCell id="WNSE2Z_fz6bNWz0VK5kc-9" value="CS Line Storage" style="rounded=0;whiteSpace=wrap;html=1;" vertex="1" parent="1">
          <mxGeometry x="315" y="470" width="120" height="40" as="geometry"/>
        </mxCell>
        <mxCell id="WNSE2Z_fz6bNWz0VK5kc-10" value="Circular Shifter (CS)" style="rounded=0;whiteSpace=wrap;html=1;" vertex="1" parent="1">
          <mxGeometry x="465" y="470" width="180" height="40" as="geometry"/>
        </mxCell>
        <mxCell id="WNSE2Z_fz6bNWz0VK5kc-11" value="Alphabetizer" style="rounded=0;whiteSpace=wrap;html=1;" vertex="1" parent="1">
          <mxGeometry x="665" y="470" width="190" height="30" as="geometry"/>
        </mxCell>
        <mxCell id="WNSE2Z_fz6bNWz0VK5kc-12" value="" style="endArrow=classic;html=1;exitX=0;exitY=0.5;exitDx=0;exitDy=0;entryX=0.5;entryY=1;entryDx=0;entryDy=0;" edge="1" parent="1" source="WNSE2Z_fz6bNWz0VK5kc-1" target="WNSE2Z_fz6bNWz0VK5kc-14">
          <mxGeometry width="50" height="50" relative="1" as="geometry">
            <mxPoint x="175" y="610" as="sourcePoint"/>
            <mxPoint x="225" y="560" as="targetPoint"/>
          </mxGeometry>
        </mxCell>
        <mxCell id="WNSE2Z_fz6bNWz0VK5kc-13" value="" style="endArrow=classic;html=1;exitX=1;exitY=0.5;exitDx=0;exitDy=0;entryX=0.873;entryY=0;entryDx=0;entryDy=0;entryPerimeter=0;" edge="1" parent="1" source="WNSE2Z_fz6bNWz0VK5kc-1" target="WNSE2Z_fz6bNWz0VK5kc-32">
          <mxGeometry width="50" height="50" relative="1" as="geometry">
            <mxPoint x="175" y="610" as="sourcePoint"/>
            <mxPoint x="225" y="560" as="targetPoint"/>
            <Array as="points">
              <mxPoint x="745" y="80"/>
            </Array>
          </mxGeometry>
        </mxCell>
        <mxCell id="WNSE2Z_fz6bNWz0VK5kc-14" value="readLine()" style="rounded=0;whiteSpace=wrap;html=1;rotation=-90;" vertex="1" parent="1">
          <mxGeometry x="233" y="213" width="100" height="35" as="geometry"/>
        </mxCell>
        <mxCell id="WNSE2Z_fz6bNWz0VK5kc-15" value="" style="endArrow=none;html=1;fillColor=#f8cecc;strokeColor=#b85450;" edge="1" parent="1" source="WNSE2Z_fz6bNWz0VK5kc-7" target="WNSE2Z_fz6bNWz0VK5kc-14">
          <mxGeometry width="50" height="50" relative="1" as="geometry">
            <mxPoint x="145" y="650" as="sourcePoint"/>
            <mxPoint x="235" y="300" as="targetPoint"/>
          </mxGeometry>
        </mxCell>
        <mxCell id="WNSE2Z_fz6bNWz0VK5kc-16" value="setWord()" style="rounded=0;whiteSpace=wrap;html=1;rotation=-90;" vertex="1" parent="1">
          <mxGeometry x="295" y="400" width="100" height="40" as="geometry"/>
        </mxCell>
        <mxCell id="WNSE2Z_fz6bNWz0VK5kc-17" value="" style="endArrow=classic;html=1;exitX=0.5;exitY=1;exitDx=0;exitDy=0;entryX=0.342;entryY=-0.05;entryDx=0;entryDy=0;entryPerimeter=0;" edge="1" parent="1" source="WNSE2Z_fz6bNWz0VK5kc-2" target="WNSE2Z_fz6bNWz0VK5kc-16">
          <mxGeometry width="50" height="50" relative="1" as="geometry">
            <mxPoint x="175" y="770" as="sourcePoint"/>
            <mxPoint x="225" y="720" as="targetPoint"/>
            <Array as="points">
              <mxPoint x="225" y="436"/>
            </Array>
          </mxGeometry>
        </mxCell>
        <mxCell id="WNSE2Z_fz6bNWz0VK5kc-18" value="getWord()" style="rounded=0;whiteSpace=wrap;html=1;rotation=-90;" vertex="1" parent="1">
          <mxGeometry x="353" y="398" width="105" height="40" as="geometry"/>
        </mxCell>
        <mxCell id="WNSE2Z_fz6bNWz0VK5kc-19" value="" style="endArrow=classic;html=1;exitX=0.5;exitY=1;exitDx=0;exitDy=0;entryX=1;entryY=0.5;entryDx=0;entryDy=0;" edge="1" parent="1" source="WNSE2Z_fz6bNWz0VK5kc-1" target="WNSE2Z_fz6bNWz0VK5kc-20">
          <mxGeometry width="50" height="50" relative="1" as="geometry">
            <mxPoint x="175" y="770" as="sourcePoint"/>
            <mxPoint x="605" y="466" as="targetPoint"/>
          </mxGeometry>
        </mxCell>
        <mxCell id="WNSE2Z_fz6bNWz0VK5kc-20" value="setUp()" style="rounded=0;whiteSpace=wrap;html=1;rotation=-90;" vertex="1" parent="1">
          <mxGeometry x="445" y="410" width="90" height="30" as="geometry"/>
        </mxCell>
        <mxCell id="WNSE2Z_fz6bNWz0VK5kc-21" value="" style="endArrow=classic;html=1;exitX=0.5;exitY=0;exitDx=0;exitDy=0;" edge="1" parent="1" source="WNSE2Z_fz6bNWz0VK5kc-20" target="WNSE2Z_fz6bNWz0VK5kc-18">
          <mxGeometry width="50" height="50" relative="1" as="geometry">
            <mxPoint x="175" y="770" as="sourcePoint"/>
            <mxPoint x="225" y="720" as="targetPoint"/>
          </mxGeometry>
        </mxCell>
        <mxCell id="WNSE2Z_fz6bNWz0VK5kc-22" value="setWord()" style="rounded=0;whiteSpace=wrap;html=1;rotation=-90;" vertex="1" parent="1">
          <mxGeometry x="523" y="403" width="95" height="40" as="geometry"/>
        </mxCell>
        <mxCell id="WNSE2Z_fz6bNWz0VK5kc-23" value="getWord()" style="rounded=0;whiteSpace=wrap;html=1;rotation=-90;" vertex="1" parent="1">
          <mxGeometry x="573" y="403" width="95" height="40" as="geometry"/>
        </mxCell>
        <mxCell id="WNSE2Z_fz6bNWz0VK5kc-24" value="setUp()" style="rounded=0;whiteSpace=wrap;html=1;rotation=-90;" vertex="1" parent="1">
          <mxGeometry x="645" y="410" width="90" height="30" as="geometry"/>
        </mxCell>
        <mxCell id="WNSE2Z_fz6bNWz0VK5kc-25" value="" style="endArrow=classic;html=1;exitX=0.5;exitY=0;exitDx=0;exitDy=0;" edge="1" parent="1" source="WNSE2Z_fz6bNWz0VK5kc-24" target="WNSE2Z_fz6bNWz0VK5kc-23">
          <mxGeometry width="50" height="50" relative="1" as="geometry">
            <mxPoint x="630" y="340" as="sourcePoint"/>
            <mxPoint x="680" y="290" as="targetPoint"/>
          </mxGeometry>
        </mxCell>
        <mxCell id="WNSE2Z_fz6bNWz0VK5kc-26" value="string ith()" style="rounded=0;whiteSpace=wrap;html=1;rotation=-90;" vertex="1" parent="1">
          <mxGeometry x="735" y="398" width="108" height="34" as="geometry"/>
        </mxCell>
        <mxCell id="WNSE2Z_fz6bNWz0VK5kc-27" value="alphaSort()" style="rounded=0;whiteSpace=wrap;html=1;rotation=-90;" vertex="1" parent="1">
          <mxGeometry x="678" y="398" width="115" height="30" as="geometry"/>
        </mxCell>
        <mxCell id="WNSE2Z_fz6bNWz0VK5kc-28" value="" style="endArrow=classic;html=1;exitX=0.5;exitY=1;exitDx=0;exitDy=0;entryX=1;entryY=0.5;entryDx=0;entryDy=0;" edge="1" parent="1" source="WNSE2Z_fz6bNWz0VK5kc-3" target="WNSE2Z_fz6bNWz0VK5kc-26">
          <mxGeometry width="50" height="50" relative="1" as="geometry">
            <mxPoint x="175" y="770" as="sourcePoint"/>
            <mxPoint x="875" y="290" as="targetPoint"/>
          </mxGeometry>
        </mxCell>
        <mxCell id="WNSE2Z_fz6bNWz0VK5kc-29" value="" style="endArrow=none;html=1;fillColor=#f8cecc;strokeColor=#b85450;entryX=0;entryY=0.5;entryDx=0;entryDy=0;exitX=0.5;exitY=0;exitDx=0;exitDy=0;" edge="1" parent="1" source="WNSE2Z_fz6bNWz0VK5kc-8" target="WNSE2Z_fz6bNWz0VK5kc-32">
          <mxGeometry width="50" height="50" relative="1" as="geometry">
            <mxPoint x="934.4034334763949" y="517.5" as="sourcePoint"/>
            <mxPoint x="955.994277539342" y="248" as="targetPoint"/>
          </mxGeometry>
        </mxCell>
        <mxCell id="WNSE2Z_fz6bNWz0VK5kc-30" value="shiftLine()" style="rounded=0;whiteSpace=wrap;html=1;rotation=-90;" vertex="1" parent="1">
          <mxGeometry x="470" y="400" width="110" height="30" as="geometry"/>
        </mxCell>
        <mxCell id="WNSE2Z_fz6bNWz0VK5kc-31" value="" style="endArrow=classic;html=1;exitX=0.75;exitY=1;exitDx=0;exitDy=0;entryX=1;entryY=0.5;entryDx=0;entryDy=0;" edge="1" parent="1" source="WNSE2Z_fz6bNWz0VK5kc-1" target="WNSE2Z_fz6bNWz0VK5kc-24">
          <mxGeometry width="50" height="50" relative="1" as="geometry">
            <mxPoint x="592.5" y="170" as="sourcePoint"/>
            <mxPoint x="547.5" y="380" as="targetPoint"/>
          </mxGeometry>
        </mxCell>
        <mxCell id="WNSE2Z_fz6bNWz0VK5kc-32" value="writeLine()" style="rounded=0;whiteSpace=wrap;html=1;rotation=-90;" vertex="1" parent="1">
          <mxGeometry x="855" y="125" width="165" height="33" as="geometry"/>
        </mxCell>
        <mxCell id="WNSE2Z_fz6bNWz0VK5kc-33" value="" style="endArrow=classic;html=1;exitX=0.25;exitY=1;exitDx=0;exitDy=0;" edge="1" parent="1" target="WNSE2Z_fz6bNWz0VK5kc-16">
          <mxGeometry width="50" height="50" relative="1" as="geometry">
            <mxPoint x="505" y="170" as="sourcePoint"/>
            <mxPoint x="375" y="470" as="targetPoint"/>
            <Array as="points">
              <mxPoint x="348" y="240"/>
            </Array>
          </mxGeometry>
        </mxCell>
      </root>
    </mxGraphModel>
  </diagram>
</mxfile>
